<?xml version="1.0" encoding="UTF-8"?>
<svg version="1.1" xmlns="http://www.w3.org/2000/svg" width="3840" height="3837">
<path d="M0 0 C4.05830828 -0.00100162 8.11660766 -0.00561272 12.17491221 -0.01099443 C25.69619902 -0.02854783 39.21745457 -0.03784399 52.73875285 -0.03633349 C53.8239919 -0.03621362 53.8239919 -0.03621362 54.93115497 -0.03609133 C56.01778954 -0.03596869 56.01778954 -0.03596869 57.12637632 -0.03584357 C68.80107777 -0.03503497 80.47564888 -0.05408017 92.15031279 -0.08236806 C104.26631745 -0.11148258 116.38225946 -0.12488727 128.49829978 -0.12318051 C135.24845258 -0.12252908 141.99844 -0.12787106 148.7485702 -0.14953661 C183.02031658 -0.25195858 216.83508269 1.07226399 250.95434833 4.33451414 C252.4903072 4.47834919 254.02630448 4.62177496 255.56234622 4.76472235 C263.34683529 5.49170205 271.12122871 6.28408246 278.89184833 7.14701414 C280.02650531 7.27112669 281.16116229 7.39523924 282.33020282 7.52311277 C368.86886853 17.01391436 454.47941151 32.33560197 538.95434833 53.33451414 C540.00032184 53.59321287 541.04629535 53.8519116 542.12396502 54.11844969 C643.07172011 79.09772344 742.35383863 112.76845725 863.95434833 166.33451414 C865.14544208 166.87414793 866.33653583 167.41378172 867.56372333 167.96976805 C882.46881826 174.74188419 897.23191311 181.79781832 911.95825458 188.94779539 C917.35761685 191.56793268 922.7731686 194.15138836 928.19775653 196.71879148 C938.43168892 201.56913613 948.48504492 206.68098549 958.47192645 212.01908445 C961.11825723 213.42136909 963.77654935 214.79849387 966.43872333 216.17045164 C977.21399814 221.72781826 987.85544643 227.46197277 998.38550067 233.47172117 C1004.9898974 237.23874016 1011.64179114 240.90494735 1018.32934833 244.52201414 C1026.75899814 249.09724726 1035.07609427 253.81683876 1043.30298114 258.74662352 C1045.90727704 260.30632338 1048.51487489 261.86041693 1051.12294269 263.41379881 C1064.27442701 271.25019257 1077.39721637 279.1179453 1090.29638934 287.36552 C1093.26491378 289.26173422 1096.2404811 291.14562171 1099.22632098 293.01444578 C1110.4248072 300.02855835 1121.4707171 307.2511485 1132.45312762 314.59843016 C1135.14901991 316.40181148 1137.84738784 318.20143955 1140.5461452 320.00052977 C1153.91055936 328.91907338 1167.21697325 337.923031 1180.32934833 347.20951414 C1181.02447528 347.70161375 1181.71960223 348.19371336 1182.43579364 348.70072508 C1184.61038774 350.24288689 1186.78275941 351.78812401 1188.95434833 353.33451414 C1189.66816669 353.8420825 1190.38198504 354.34965086 1191.11743426 354.87260008 C1201.87164344 362.5334637 1212.41798854 370.44226416 1222.89966083 378.47123289 C1227.39563232 381.91417817 1231.91788782 385.32017912 1236.45434833 388.70951414 C1246.77279207 396.43360631 1256.95614769 404.28451016 1266.93603778 412.44315672 C1271.29651456 416.00387254 1275.69931155 419.50192634 1280.14184833 422.95951414 C1285.84469552 427.4058974 1291.37756714 432.02593004 1296.87622333 436.72123289 C1299.68142152 439.11333683 1302.5289799 441.44907265 1305.39184833 443.77201414 C1311.40333034 448.66832268 1317.27478264 453.72059338 1323.14721942 458.78177977 C1324.93858977 460.32097396 1326.7363072 461.85238533 1328.53637958 463.38138914 C1335.24636939 469.08778344 1341.82377467 474.90458768 1348.29028583 480.88529539 C1350.4852561 482.90325193 1352.70101043 484.88254859 1354.95434833 486.83451414 C1359.86286947 491.09397464 1364.62706525 495.51087725 1369.40747333 499.91263914 C1370.87849943 501.26479445 1372.35381037 502.61228383 1373.82934833 503.95951414 C1385.23757677 514.37572272 1396.65035541 524.80002034 1407.44238544 535.85941648 C1410.02508793 538.48779588 1412.66415295 540.96833043 1415.46997333 543.35795164 C1421.21186391 548.32679036 1426.51684038 553.74788941 1431.87378192 559.12357664 C1433.71070731 560.96589179 1435.55295632 562.80276292 1437.39575458 564.63920164 C1438.57706516 565.82117258 1439.75806574 567.00345343 1440.93872333 568.18607664 C1441.75599902 569.00031599 1441.75599902 569.00031599 1442.58978534 569.83100462 C1444.9633401 572.21910311 1447.12787495 574.5568616 1449.20532489 577.21879148 C1449.78250262 577.91697996 1450.35968036 578.61516844 1450.95434833 579.33451414 C1451.61434833 579.33451414 1452.27434833 579.33451414 1452.95434833 579.33451414 C1454.48039835 577.40915286 1455.88019781 575.48282522 1457.26684833 573.45951414 C1458.17106459 572.16603361 1459.07605012 570.87309061 1459.98169208 569.58060789 C1460.46364032 568.88950926 1460.94558856 568.19841063 1461.44214129 567.48636961 C1464.50501324 563.12793349 1467.65234511 558.82989939 1470.78369403 554.5205493 C1481.13369161 540.22745589 1491.13233873 525.72387509 1500.89184833 511.02201414 C1502.04634752 509.28582096 1503.2008889 507.54965584 1504.35547137 505.81351805 C1538.22443803 454.85117083 1569.66613221 402.37508255 1597.57544208 347.90482664 C1599.92118782 343.3277935 1602.30542764 338.77554509 1604.73657489 334.24344969 C1618.08870738 309.29144046 1629.72126493 283.49529892 1641.08227801 257.59281492 C1642.89302024 253.46798122 1644.72124443 249.35109793 1646.55591083 245.23685789 C1646.97785724 244.29036375 1646.97785724 244.29036375 1647.40832782 243.32474852 C1648.71385723 240.3969534 1650.02012124 237.4694862 1651.32641864 234.54203367 C1651.77855731 233.52609129 1652.23069598 232.51014891 1652.69653583 231.46342039 C1653.08696063 230.58758299 1653.47738544 229.71174559 1653.87964129 228.80936766 C1654.95385543 226.3356492 1655.96560329 223.84347574 1656.95434833 221.33451414 C1657.61434833 221.33451414 1658.27434833 221.33451414 1658.95434833 221.33451414 C1669.09191624 252.20921941 1679.12777384 283.11396011 1688.99838519 314.07505369 C1691.25934011 321.1646174 1693.5315851 328.25048535 1695.80981708 335.33451414 C1706.49546396 368.57717513 1716.93916659 401.89366149 1727.30258441 435.23786497 C1727.95293703 437.32997416 1728.60361405 439.42198218 1729.25439715 441.5139575 C1751.95271072 514.48248917 1773.96671869 587.66726075 1805.95434833 699.33451414 C1806.13600039 699.97807104 1806.31765246 700.62162794 1806.50480914 701.28468657 C1824.70667093 765.77766947 1842.19749486 830.45098827 1858.95434833 895.33451414 C1859.21413722 896.34003576 1859.21413722 896.34003576 1859.47917438 897.36587095 C1880.73550124 979.65272448 1900.29851246 1062.32764988 1930.95434833 1207.33451414 C1931.09259273 1208.02123701 1931.23083713 1208.70795988 1931.37327075 1209.41549253 C1946.74235272 1285.80372811 1960.14480046 1362.55545216 2000.85434222 1748.69044065 C2000.96337153 1751.57307979 2001.0899262 1754.45474002 2001.21533465 1757.33671141 C2002.22937741 1782.32807481 2002.14171856 1807.33383233 2002.13965106 1832.34159422 C2002.13957031 1837.51122656 2002.1464455 1842.68076931 2002.16015887 1847.85038328 C2002.24937047 1882.0617874 2001.73566533 1916.1664041 1999.95434833 1950.33451414 C1999.91540328 1951.08394159 1999.87645823 1951.83336905 1999.83633304 1952.60550642 C1999.38182041 1961.25114641 1998.82705397 1969.88701585 1998.20434833 1978.52201414 C1998.12264392 1979.6871353 1998.04093951 1980.85225645 1997.95675921 1982.05268431 C1996.12626325 2008.03768849 1993.6233891 2033.95462119 1991.06195331 2059.87522459 C1990.23093802 2068.34158337 1989.46111468 2076.81129118 1988.73950458 2085.28763914 C1980.40878322 2182.73146288 1964.82728397 2279.45412589 1902.95434833 2511.33451414 C1902.64688678 2512.28848082 1902.33942523 2513.24244749 1902.02264667 2514.22532225 C1888.70888048 2555.45890246 1874.2966148 2596.37639208 1857.74090838 2636.42991209 C1856.8977617 2638.47153483 1856.05794368 2640.51450726 1855.21850848 2642.55765867 C1843.28445815 2671.5814372 1830.90021741 2700.39369877 1817.59839129 2728.8198657 C1816.4359213 2731.30500352 1815.27586651 2733.79115522 1814.11889911 2736.27885008 C1802.12373577 2762.06427925 1789.76242266 2787.65660181 1776.3430202 2812.73685789 C1774.72345259 2815.76642881 1773.11265719 2818.80060933 1771.50122333 2821.83451414 C1763.19011407 2837.45037704 1754.69572936 2852.95441511 1745.95434833 2868.33451414 C1745.0656203 2869.89951658 1745.0656203 2869.89951658 1744.15893817 2871.49613523 C1734.40311754 2888.63629713 1724.27092794 2905.52843215 1713.95434833 2922.33451414 C1713.06852069 2923.77915037 1713.06852069 2923.77915037 1712.16479754 2925.25297117 C1701.22051061 2943.08069706 1690.10145628 2960.80263415 1678.41528583 2978.15482664 C1676.66879553 2980.7605528 1674.93640761 2983.37542362 1673.20434833 2985.99076414 C1665.75930904 2997.22258139 1658.22266754 3008.36487756 1650.38550067 3019.32670164 C1648.41601859 3022.08975532 1646.46597244 3024.86630964 1644.5148952 3027.64237547 C1633.2181858 3043.70189243 1621.62303979 3059.48878047 1609.67993426 3075.07426023 C1607.54184204 3077.87483435 1605.43276035 3080.69530988 1603.32934833 3083.52201414 C1594.77351707 3094.96810701 1585.94994146 3106.23109753 1576.95434833 3117.33451414 C1576.4764284 3117.92442137 1575.99850848 3118.51432859 1575.50610614 3119.1221118 C1572.16889015 3123.23936398 1568.82595905 3127.35192817 1565.47925067 3131.46146727 C1564.15336257 3133.09006373 1562.82910198 3134.71998493 1561.50512958 3136.35013914 C1557.07964942 3141.78466055 1552.58427291 3147.15403495 1548.04419208 3152.49271727 C1545.09429423 3155.96731683 1542.19752113 3159.47927108 1539.32934833 3163.02201414 C1535.74917797 3167.42396737 1532.00408672 3171.63566003 1528.18091083 3175.82670164 C1525.97574076 3178.31041951 1523.89923829 3180.86246119 1521.82934833 3183.45951414 C1517.30189709 3189.06303213 1512.4108474 3194.28392347 1507.44604754 3199.50101805 C1503.73585406 3203.40384674 1500.13609579 3207.37662051 1496.60669208 3211.443645 C1494.21143873 3214.18466703 1491.74509651 3216.85615586 1489.26684833 3219.52201414 C1488.22246376 3220.64821076 1487.17819633 3221.77451602 1486.13403583 3222.90092039 C1485.60777606 3223.46826902 1485.08151629 3224.03561766 1484.53930926 3224.62015867 C1482.98673855 3226.29947961 1481.44194585 3227.98559055 1479.89966083 3229.67435789 C1474.28621931 3235.81116333 1468.57724909 3241.79683262 1462.62231708 3247.60404539 C1460.62202464 3249.65119681 1458.76755338 3251.69805368 1456.91430926 3253.87015867 C1452.47106865 3258.96499603 1447.71080819 3263.72161167 1442.92700458 3268.49467039 C1441.96953808 3269.45281274 1441.01221988 3270.4111033 1440.05504107 3271.36953306 C1438.06061086 3273.36542701 1436.06441092 3275.35952866 1434.06689715 3277.35233641 C1431.52760434 3279.88593277 1428.9928293 3282.42399397 1426.45937705 3284.96342897 C1424.48702649 3286.93942117 1422.5122657 3288.91299093 1420.53680491 3290.88587332 C1419.15308205 3292.26862013 1417.77134518 3293.65335344 1416.38966632 3295.03814268 C1411.93049625 3299.48092499 1407.42155126 3303.79306792 1402.63096881 3307.87807798 C1400.10295462 3310.07409748 1397.79397672 3312.43850916 1395.45434833 3314.83451414 C1391.80153558 3318.57534647 1388.02564081 3322.04706706 1384.07348895 3325.46927977 C1380.44505845 3328.66296744 1376.95695483 3332.00416697 1373.45434833 3335.33451414 C1368.63521751 3339.91663852 1363.77336607 3344.4187399 1358.7492702 3348.77592039 C1356.45739142 3350.76603929 1354.20439548 3352.79730929 1351.95434833 3354.83451414 C1344.30301172 3361.73231002 1336.50450298 3368.45078923 1328.67700458 3375.14701414 C1326.22271128 3377.24683415 1323.77230453 3379.35104051 1321.32544208 3381.45951414 C1314.28396469 3387.52282154 1307.17202912 3393.48088909 1299.95434833 3399.33451414 C1298.22460557 3400.75047734 1296.49545271 3402.16716144 1294.76684833 3403.58451414 C1293.85805926 3404.32701414 1292.9492702 3405.06951414 1292.01294208 3405.83451414 C1290.40255908 3407.15079143 1288.79249444 3408.46746395 1287.18530536 3409.78763914 C1278.35053267 3417.0442012 1269.39965324 3424.11234246 1260.29419208 3431.02592039 C1255.87917674 3434.38125237 1251.5102181 3437.79382584 1247.14184833 3441.20951414 C1232.3908878 3452.71455772 1217.36789793 3463.83894777 1202.16772723 3474.7417407 C1199.93865119 3476.34580998 1197.71699312 3477.95965477 1195.49731708 3479.57670164 C1188.1280585 3484.940811 1180.71788979 3490.23191751 1173.18872333 3495.36967039 C1171.96884471 3496.20299643 1171.96884471 3496.20299643 1170.72432208 3497.05315733 C1161.23826052 3503.52131484 1151.69667726 3509.90603449 1142.14184833 3516.27201414 C1141.2216994 3516.88524534 1140.30155047 3517.49847654 1139.35351825 3518.13029051 C1125.98955407 3527.0316804 1112.59930998 3535.86770632 1098.95434833 3544.33451414 C1097.97288836 3544.94585203 1096.9914284 3545.55718992 1095.98022723 3546.1870532 C1072.59899968 3560.73489125 1048.9364093 3574.79926654 1024.95434833 3588.33451414 C1023.51357928 3589.14952391 1023.51357928 3589.14952391 1022.04370379 3589.98099852 C995.3422256 3605.07182911 968.28576044 3619.42504739 940.95434833 3633.33451414 C940.29827594 3633.6685626 939.64220355 3634.00261106 938.96625018 3634.34678221 C921.67559255 3643.14416251 904.25586899 3651.60529606 886.60620379 3659.66459227 C883.47717937 3661.09349761 880.35354077 3662.53382496 877.23083758 3663.97648191 C842.63374109 3679.94884763 807.52170245 3694.66289719 771.95434833 3708.33451414 C771.15531085 3708.64175413 770.35627337 3708.94899412 769.53302264 3709.26554441 C680.55011488 3743.43159159 589.16354871 3771.5019834 460.95434833 3799.33451414 C460.00831744 3799.52638304 459.06228656 3799.71825193 458.08758807 3799.91593504 C352.31005848 3821.32611947 244.60606384 3833.62009882 101.95434833 3837.33451414 C101.0349245 3837.34653868 100.11550067 3837.35856321 99.16821551 3837.37095213 C-1.82569685 3838.63158473 -103.19027433 3831.51914552 -590.68676496 3716.22520018 C-593.05532149 3715.33086294 -595.42531452 3714.4404288 -597.79565167 3713.55082273 C-645.74074814 3695.53554654 -692.72764021 3675.17966068 -739.04565167 3653.33451414 C-740.48738751 3652.65703123 -740.48738751 3652.65703123 -741.95824933 3651.9658618 C-770.81972058 3638.37548524 -799.63079577 3624.34943345 -827.4694798 3608.75931883 C-831.48045694 3606.54096567 -835.53092566 3604.39753868 -839.57641339 3602.24296141 C-851.19972003 3596.04437366 -862.63780719 3589.589409 -873.98315167 3582.89701414 C-878.13268373 3580.44943859 -882.29937716 3578.03558733 -886.48315167 3575.64701414 C-900.24626517 3567.78838923 -913.76794599 3559.63166651 -927.1569798 3551.15238523 C-929.89492725 3549.42936658 -932.64607165 3547.7306705 -935.40502667 3546.04154539 C-967.74409273 3526.18341014 -999.51841944 3504.88779642 -1030.25707746 3482.62845945 C-1032.24484616 3481.19040675 -1034.23688551 3479.75838613 -1036.22924542 3478.32670164 C-1053.02493237 3466.24530261 -1069.67069305 3453.98111242 -1086.04565167 3441.33451414 C-1086.78170636 3440.76732664 -1087.51776105 3440.20013914 -1088.27612042 3439.61576414 C-1097.03690133 3432.86046321 -1105.72170225 3426.02614039 -1114.28368878 3419.02030516 C-1118.53524574 3415.54513331 -1122.83450578 3412.14079116 -1127.17065167 3408.77201414 C-1132.6110038 3404.53719459 -1137.86708346 3400.12025871 -1143.07519269 3395.60380125 C-1146.35849473 3392.76104939 -1149.68307076 3390.00707324 -1153.10815167 3387.33451414 C-1158.33168698 3383.21248216 -1163.15086628 3378.69244952 -1168.01049542 3374.15482664 C-1170.98027162 3371.38352332 -1174.01697189 3368.6993297 -1177.08862042 3366.04154539 C-1179.43124318 3363.99817984 -1181.7383859 3361.91770555 -1184.04565167 3359.83451414 C-1187.02627888 3357.14467983 -1190.018104 3354.4714105 -1193.04565167 3351.83451414 C-1196.94077978 3348.44198321 -1200.7734793 3344.98257214 -1204.60815167 3341.52201414 C-1206.73982648 3339.60897265 -1208.88584278 3337.71563802 -1211.04565167 3335.83451414 C-1214.88910272 3332.48500058 -1218.68029688 3329.0798346 -1222.46362042 3325.66263914 C-1224.19072791 3324.10536825 -1225.92254517 3322.55330558 -1227.65893292 3321.00638914 C-1231.98123265 3317.14976966 -1236.18864939 3313.24358641 -1240.2416966 3309.10551023 C-1241.97961935 3307.39934002 -1243.77514082 3305.82399628 -1245.63158917 3304.24857664 C-1251.60511823 3299.05414391 -1257.07189661 3293.3533261 -1262.62377667 3287.71732664 C-1267.06973959 3283.23044996 -1271.56712641 3278.90028481 -1276.36156964 3274.78715086 C-1278.357336 3273.06566495 -1280.24876878 3271.26457014 -1282.10815167 3269.39701414 C-1282.99180402 3268.51722898 -1282.99180402 3268.51722898 -1283.89330792 3267.61967039 C-1285.6546621 3265.74963011 -1287.31485188 3263.84745119 -1288.97924542 3261.89310789 C-1294.34220185 3255.72902816 -1300.23779559 3250.07423336 -1306.04565167 3244.33451414 C-1319.64474293 3230.8949653 -1319.64474293 3230.8949653 -1324.62963605 3224.96927977 C-1326.18957379 3223.16835854 -1327.84467312 3221.50210623 -1329.54565167 3219.83451414 C-1332.49105897 3216.93452061 -1335.20028876 3213.89824983 -1337.89721417 3210.76810789 C-1340.72185287 3207.56856261 -1343.63315751 3204.4539855 -1346.54565167 3201.33451414 C-1350.56170346 3197.02917529 -1354.53694413 3192.70483743 -1358.38158917 3188.24467039 C-1360.36105293 3185.97246903 -1362.39148338 3183.74991542 -1364.42065167 3181.52201414 C-1367.54987994 3178.05921332 -1370.55065516 3174.52772411 -1373.48315167 3170.89701414 C-1376.55901755 3167.09363911 -1379.73318333 3163.43368762 -1383.04565167 3159.83451414 C-1387.10548813 3155.4181127 -1390.93888989 3150.87287892 -1394.70580792 3146.20560789 C-1397.23298914 3143.10464263 -1399.82194946 3140.06289314 -1402.42065167 3137.02201414 C-1406.66722382 3132.03626494 -1410.75520757 3126.94675247 -1414.77734113 3121.77885008 C-1418.32653734 3117.22554304 -1421.95409879 3112.74146068 -1425.60815167 3108.27201414 C-1431.22368324 3101.39239092 -1436.66544421 3094.39880631 -1442.04565167 3087.33451414 C-1443.58645474 3085.33384875 -1445.12814663 3083.33386761 -1446.67065167 3081.33451414 C-1447.95467034 3079.66391479 -1449.23761831 3077.99249825 -1450.52026105 3076.32084227 C-1451.6298335 3074.87598288 -1452.74068134 3073.43210265 -1453.8522923 3071.98881102 C-1461.82345169 3061.63345639 -1469.65236104 3051.21783466 -1477.12768292 3040.49857664 C-1480.17265955 3036.13448772 -1483.29369648 3031.82756203 -1486.42065167 3027.52201414 C-1496.23411228 3013.98003057 -1505.84315361 3000.29954214 -1515.04565167 2986.33451414 C-1516.16067729 2984.66898216 -1517.27575479 2983.00348459 -1518.39184308 2981.33866453 C-1529.87979212 2964.18052948 -1541.12457852 2946.85895028 -1552.04565167 2929.33451414 C-1552.63926496 2928.38302488 -1553.23287824 2927.43153563 -1553.8444798 2926.45121336 C-1563.4895326 2910.96224779 -1572.83629517 2895.31930084 -1582.00683331 2879.54632139 C-1584.20925825 2875.76072503 -1586.43123598 2871.98737252 -1588.66674542 2868.22123289 C-1596.80226367 2854.47880343 -1604.39117598 2840.50191013 -1611.82827497 2826.3735919 C-1613.75775705 2822.72261283 -1615.72251893 2819.09350755 -1617.71874738 2815.47855711 C-1625.20842512 2801.90759002 -1632.28755483 2788.160721 -1639.19970441 2774.28715086 C-1640.9724818 2770.73091816 -1642.75373918 2767.17902774 -1644.53588605 2763.62748289 C-1652.68792306 2747.33372968 -1660.4616951 2730.8988342 -1668.04565167 2714.33451414 C-1668.85600892 2712.57144355 -1669.6664655 2710.80841861 -1670.47704816 2709.04545164 C-1694.57660065 2656.51985293 -1715.74171256 2602.79446822 -1735.04565167 2548.33451414 C-1735.49684369 2547.06245115 -1735.49684369 2547.06245115 -1735.9571507 2545.76468992 C-1764.17863406 2466.05415463 -1786.78623957 2384.00989481 -1803.48174787 2301.12467527 C-1804.04657619 2298.32993967 -1804.61814527 2295.53666133 -1805.19164777 2292.74369383 C-1817.151346 2234.40351632 -1825.90864496 2175.53517454 -1832.29565167 2116.33451414 C-1832.41475904 2115.23600126 -1832.5338664 2114.13748838 -1832.65658307 2113.00568724 C-1833.23646819 2107.61685017 -1833.79224674 2102.22667964 -1834.31129193 2096.83163023 C-1834.77866129 2091.98532889 -1835.28601929 2087.14568949 -1835.81817365 2082.30613279 C-1838.7296231 2053.99734509 -1838.52277264 2025.61818804 -1838.51507469 1997.19365861 C-1838.51368986 1991.95860443 -1838.5176505 1986.72357774 -1838.52497602 1981.48852873 C-1838.54777231 1964.87055253 -1838.55343496 1948.25266122 -1838.54546171 1931.63467249 C-1838.53991059 1918.68992577 -1838.56063433 1905.74537843 -1838.59382218 1892.80067816 C-1838.62800926 1879.3566238 -1838.64267188 1865.9126636 -1838.63810515 1852.46856523 C-1838.6359033 1844.9822711 -1838.64059118 1837.49616218 -1838.66599774 1830.00990629 C-1838.7873698 1792.21766658 -1837.18728762 1754.9301021 -1833.04565167 1717.33451414 C-1832.9228156 1716.2088123 -1832.79997952 1715.08311047 -1832.67342114 1713.92329645 C-1821.13160183 1608.21105308 -1801.68311598 1503.80867543 -1747.04565167 1314.33451414 C-1746.70707135 1313.31124022 -1746.36849103 1312.28796629 -1746.0196507 1311.23368406 C-1727.26149553 1254.61529349 -1706.05692417 1198.9412887 -1682.04565167 1144.33451414 C-1681.76632794 1143.69914732 -1681.48700421 1143.0637805 -1681.19921613 1142.40916014 C-1659.60491705 1093.35172259 -1636.36920492 1044.95022879 -1610.50463605 997.99515867 C-1609.03276243 995.31100895 -1607.57611017 992.61912489 -1606.12377667 989.92435789 C-1599.28085074 977.24541965 -1592.12795426 964.77344735 -1584.81908917 952.35795164 C-1583.07079765 949.37738415 -1581.33697708 946.38890834 -1579.60815167 943.39701414 C-1548.09075759 888.90323341 -1513.14438555 836.18127807 -1476.04565167 785.33451414 C-1475.49441632 784.57847898 -1474.94318097 783.82244383 -1474.37524152 783.04349852 C-1461.12217981 764.89364648 -1447.4642857 747.05408035 -1433.62133527 729.3511157 C-1432.15172585 727.47027068 -1430.68609685 725.58639858 -1429.22143292 723.70170164 C-1419.72989849 711.51720424 -1409.88096489 699.62418795 -1399.87328839 687.86112547 C-1397.09680078 684.59355493 -1394.37007245 681.29092272 -1391.67065167 677.95951414 C-1387.02479064 672.2536349 -1382.20358049 666.70900261 -1377.36987042 661.16263914 C-1375.23149894 658.70708105 -1373.10832167 656.24006861 -1371.00268292 653.75638914 C-1365.33737497 647.07635744 -1359.54208556 640.55976153 -1353.55395246 634.16678953 C-1350.23508123 630.62348027 -1346.99540511 627.03008274 -1343.81908917 623.35795164 C-1332.74218048 610.7195404 -1321.25369622 598.20229054 -1309.17065167 586.52201414 C-1307.3795057 584.6781874 -1305.72135353 582.7992911 -1304.05322003 580.84647703 C-1299.5250823 575.65959213 -1294.67179884 570.81716459 -1289.79955792 565.95560789 C-1288.81967115 564.97504533 -1287.83993267 563.99433455 -1286.86033368 563.01348448 C-1284.81882527 560.97051202 -1282.77554602 558.92933245 -1280.73095441 556.88944578 C-1278.13112764 554.29531548 -1275.53581794 551.6967198 -1272.94183183 549.09675074 C-1270.92315772 547.07443589 -1268.90207435 545.05454224 -1266.88029027 543.03533697 C-1265.46332843 541.61935168 -1264.0483535 540.20137899 -1262.63343549 538.78335142 C-1258.11391248 534.28005911 -1253.54856322 529.90278364 -1248.69321942 525.76189756 C-1246.35521596 523.73634967 -1244.20275617 521.54991875 -1242.04565167 519.33451414 C-1238.57092825 515.76587928 -1234.94228044 512.47638561 -1231.18237042 509.21732664 C-1227.54949172 506.01614285 -1224.05428135 502.67058826 -1220.54565167 499.33451414 C-1215.73309191 494.75863764 -1210.87619532 490.26633533 -1205.85863996 485.91556883 C-1203.44196182 483.80805366 -1201.08839104 481.63527182 -1198.73315167 479.45951414 C-1194.2166133 475.33544738 -1189.55432152 471.45514549 -1184.79565167 467.61576414 C-1181.96465589 465.26732446 -1179.2518157 462.82541512 -1176.54565167 460.33451414 C-1172.15186619 456.29496596 -1167.62726344 452.48771795 -1162.98315167 448.74076414 C-1159.68211386 446.03672253 -1156.45810467 443.25328557 -1153.23315167 440.45951414 C-1148.10271899 436.0284316 -1142.8652308 431.77720499 -1137.50951886 427.62235594 C-1132.75953906 423.9268295 -1128.11484595 420.1143677 -1123.48315167 416.27201414 C-1117.03164897 410.92952059 -1110.48566016 405.76141357 -1103.81664777 400.69193602 C-1101.83689106 399.17450463 -1099.87205286 397.63903124 -1097.90893292 396.10013914 C-1087.88616358 388.24469414 -1077.72639253 380.60727251 -1067.44555402 373.0933032 C-1065.03188731 371.32442681 -1062.62556383 369.54601249 -1060.22143292 367.76420164 C-1049.93010371 360.1395236 -1039.54653938 352.66751227 -1029.04565167 345.33451414 C-1028.14234113 344.70222898 -1027.23903058 344.06994383 -1026.30834699 343.41849852 C-1015.20022687 335.64542285 -1004.06795278 327.92291328 -992.74780011 320.46146727 C-991.05229278 319.33891106 -989.36435997 318.2058206 -987.67846417 317.06888914 C-975.60840643 308.93986619 -963.33136778 301.13229742 -951.04565167 293.33451414 C-950.0695091 292.71415281 -949.09336652 292.09379148 -948.08764386 291.45463133 C-931.22742872 280.76096365 -914.09538656 270.54492026 -896.88995099 260.42039061 C-895.16421468 259.40432102 -893.43960786 258.38633375 -891.71508527 257.36820555 C-834.03420375 223.32747708 -774.25581673 192.595391 -713.11736798 165.26163816 C-711.05032508 164.33660556 -708.98460544 163.40867494 -706.91918683 162.48002195 C-627.55811955 126.8263839 -545.30663381 96.6298941 -388.43993878 52.92380857 C-385.98703522 52.32008715 -383.5349011 51.71330114 -381.08276105 51.1064868 C-289.98409384 28.62334144 -197.17852475 13.41981211 -103.79565167 4.45951414 C-102.78028333 4.36191801 -101.76491498 4.26432188 -100.71877789 4.16376829 C-95.91874181 3.707374 -91.11782323 3.27163593 -86.31289411 2.86989927 C-82.44964815 2.54567117 -78.59148388 2.19252865 -74.73359418 1.81040525 C-49.8942104 -0.4642522 -24.91736185 0.00497123 0 0 Z M1636.95434833 422.33451414 C1636.41656756 423.42578611 1635.8787868 424.51705809 1635.32470965 425.64139891 C1625.76569004 445.01383216 1616.22293773 464.31036529 1605.32007098 482.97025633 C1603.57087753 485.99835597 1601.89399935 489.06302322 1600.21948504 492.13285398 C1586.83806592 516.63014137 1571.62579258 540.24521451 1555.95434833 563.33451414 C1555.19855487 564.44971434 1555.19855487 564.44971434 1554.42749286 565.58744383 C1528.52019597 603.76743738 1500.70316084 640.66849152 1470.78637958 675.80131102 C1467.9582282 679.12731744 1465.19399061 682.49791814 1462.45434833 685.89701414 C1458.32978842 690.96770965 1453.95818233 695.76643893 1449.51684833 700.55717039 C1446.84949033 703.44816359 1444.2561123 706.39253056 1441.67700458 709.36185789 C1435.3704643 716.58363303 1428.87634272 723.64054365 1422.35425067 730.66752195 C1420.2121903 732.97568456 1418.07624475 735.28923198 1415.94482684 737.60721922 C1404.90613759 749.55025849 1393.40928324 761.03353597 1381.89990497 772.51932859 C1379.0603866 775.353095 1376.2254601 778.1914065 1373.39178824 781.03101778 C1371.17582386 783.25061397 1368.95746112 785.46780088 1366.73838878 787.68428946 C1365.69201832 788.73000076 1364.646368 789.77643326 1363.60150599 790.82365179 C1358.42993 796.00435477 1353.24072435 801.11416395 1347.65269732 805.85024595 C1345.83579371 807.43812467 1344.14344346 809.11199088 1342.45434833 810.83451414 C1339.550987 813.78334197 1336.51179948 816.49583524 1333.37622333 819.19388914 C1330.85855387 821.41918408 1328.40768105 823.70446012 1325.95825458 826.00419188 C1320.37724035 831.24389407 1314.71200262 836.23991562 1308.73169208 841.02592039 C1305.52990099 843.6873248 1302.49221786 846.48934861 1299.45434833 849.33451414 C1294.72457452 853.75871656 1289.87418672 857.94181056 1284.82153583 861.99857664 C1281.53857284 864.67325221 1278.34151784 867.43637901 1275.14184833 870.20951414 C1269.92199659 874.72094722 1264.58330028 879.03645865 1259.13037372 883.26200438 C1255.18622164 886.33028951 1251.36429712 889.51019309 1247.57934833 892.77201414 C1242.21230109 897.38115728 1236.63757776 901.65037989 1230.95556903 905.86259031 C1226.67216451 909.03901891 1222.4454832 912.27163902 1218.26684833 915.58451414 C1204.81628378 926.21543023 1191.19918004 936.59912681 1177.13403583 946.40482664 C1172.00317983 949.98454998 1166.94549772 953.66474006 1161.89502215 957.35673094 C1148.32324031 967.22224106 1134.3224958 976.50697358 1120.41943622 985.89530516 C1118.57222868 987.14339203 1116.72586946 988.39273539 1114.88037372 989.64335203 C1103.03015044 997.67349979 1091.08809033 1005.51424715 1078.94320941 1013.09180784 C1076.279436 1014.75622172 1073.62665853 1016.43780338 1070.97387958 1018.11967039 C1003.55183614 1060.64059036 933.08140799 1099.58645064 860.57625079 1132.757442 C856.66327265 1134.54781023 852.75690557 1136.35182338 848.85432696 1138.16474485 C770.76354029 1174.4252008 689.59482053 1205.15311536 583.3251369 1235.67753172 C581.09820075 1236.2946504 578.87215483 1236.91488547 576.64624286 1237.53568602 C476.24485223 1265.44991033 372.42684883 1281.61055948 222.58886981 1295.84476805 C221.46105588 1295.93672716 221.46105588 1295.93672716 220.31045783 1296.03054404 C203.78446246 1297.37380649 187.25073479 1298.58101827 170.70825458 1299.70170164 C169.56460763 1299.77947214 169.56460763 1299.77947214 168.39785671 1299.85881376 C124.87096852 1302.81489571 81.30139709 1304.97493706 37.73124957 1307.17826414 C20.37163958 1308.05624626 3.0122565 1308.93849616 -14.34643292 1309.83451414 C-15.33844315 1309.88569002 -16.33045338 1309.93686589 -17.35252452 1309.98959255 C-46.12580379 1311.47617321 -74.88499541 1313.12119841 -103.63549542 1314.99857664 C-104.41915864 1315.04958776 -105.20282186 1315.10059889 -106.01023245 1315.1531558 C-196.98219023 1321.08002002 -287.96472762 1330.01666757 -527.01488996 1386.67820311 C-528.97335038 1387.31114747 -530.9330875 1387.93995467 -532.89330792 1388.5674243 C-554.22924881 1395.41859459 -575.17750942 1403.1811705 -596.04565167 1411.33451414 C-597.19094342 1411.78180876 -597.19094342 1411.78180876 -598.35937238 1412.23813963 C-643.80909402 1430.02496923 -688.92183482 1449.96647926 -731.48803449 1473.91312742 C-734.24930424 1475.44769333 -737.03068149 1476.93969925 -739.81908917 1478.42435789 C-767.40440333 1493.1221686 -794.30206589 1509.43590582 -820.13940167 1527.0361743 C-822.2714417 1528.48829889 -824.40869297 1529.93260741 -826.54565167 1531.37748289 C-836.74634259 1538.29531292 -846.8056227 1545.38867799 -856.75561261 1552.66215086 C-859.11143251 1554.38255239 -861.47298493 1556.0948928 -863.83471417 1557.80717039 C-872.86344168 1564.37848766 -881.66318672 1571.15027532 -890.28002667 1578.25248289 C-893.8378041 1581.18171964 -897.46500958 1584.01275924 -901.10815167 1586.83451414 C-908.02499683 1592.21875528 -914.61381024 1597.95074019 -921.20190167 1603.72904539 C-922.98168579 1605.27881503 -924.77520229 1606.81030864 -926.57690167 1608.33451414 C-933.40274764 1614.11022996 -940.0466851 1620.0334192 -946.54565167 1626.17606688 C-949.88139295 1629.3282109 -953.25812305 1632.42102671 -956.68847394 1635.47025633 C-961.79119281 1640.05786038 -966.68108726 1644.82489899 -971.52612042 1649.68217039 C-972.38321103 1650.53830427 -973.24030164 1651.39443815 -974.12336469 1652.27651548 C-975.91859377 1654.07106949 -977.71258253 1655.8668651 -979.50536847 1657.66385984 C-982.23316569 1660.39702819 -984.96628062 1663.12479709 -987.69994855 1665.85209227 C-989.45482665 1667.60763101 -991.20939461 1669.36347985 -992.96362042 1671.11967039 C-993.77107205 1671.92509779 -994.57852368 1672.73052519 -995.41044354 1673.56035948 C-999.61253605 1677.7796984 -1003.66536405 1682.07066036 -1007.54148602 1686.59223509 C-1009.9226747 1689.35037223 -1012.42807017 1691.98996674 -1014.92065167 1694.64701414 C-1019.45913691 1699.52036963 -1023.73913965 1704.53755392 -1027.90893292 1709.73295164 C-1030.00447661 1712.28438143 -1032.18528322 1714.71778187 -1034.42065167 1717.14701414 C-1038.47944754 1721.60110143 -1042.19507915 1726.25853837 -1045.88451886 1731.01688719 C-1048.90237314 1734.90292739 -1051.99653156 1738.69978117 -1055.17065167 1742.45951414 C-1059.5505657 1747.68383165 -1063.68431961 1753.04600647 -1067.72192121 1758.53812742 C-1069.21756318 1760.56780903 -1070.72328443 1762.58982164 -1072.22924542 1764.61185789 C-1105.76253969 1809.73620444 -1134.89463585 1857.58086519 -1160.61059308 1907.54789305 C-1161.53132754 1909.33579082 -1162.45520698 1911.1220745 -1163.38305402 1912.90629148 C-1178.21408435 1941.47037658 -1190.72145432 1971.22620584 -1202.04565167 2001.33451414 C-1202.31528729 2002.05103148 -1202.58492291 2002.76754881 -1202.86272931 2003.50577879 C-1229.97156736 2075.71464771 -1248.2920223 2150.53928457 -1262.73315167 2272.02201414 C-1262.79409009 2272.77596464 -1262.85502851 2273.52991514 -1262.91781354 2274.30671263 C-1264.76941435 2297.53342506 -1265.25337955 2320.72702132 -1265.23315167 2344.02201414 C-1265.2328848 2344.71353827 -1265.23261792 2345.40506239 -1265.23234296 2346.11754179 C-1265.22165049 2368.24798918 -1264.9000346 2390.27364546 -1263.04565167 2412.33451414 C-1262.98248761 2413.10942198 -1262.91932355 2413.88432981 -1262.85424542 2414.68271971 C-1260.67657105 2441.3905882 -1257.39010914 2467.89314389 -1253.04565167 2494.33451414 C-1252.91930341 2495.10523252 -1252.79295514 2495.87595091 -1252.66277814 2496.67002439 C-1237.38392779 2589.14623602 -1205.08831762 2679.40133782 -1156.04565167 2759.33451414 C-1155.42625714 2760.34481688 -1154.80686261 2761.35511961 -1154.16869855 2762.39603758 C-1147.07442833 2773.90241275 -1139.61548107 2784.95326576 -1131.34155011 2795.64164305 C-1129.43963281 2798.12617481 -1127.61854674 2800.66668192 -1125.79565167 2803.20951414 C-1122.04489603 2808.3909704 -1118.08546353 2813.37656323 -1114.04565167 2818.33451414 C-1113.32377667 2819.23170164 -1112.60190167 2820.12888914 -1111.85815167 2821.05326414 C-1107.44027577 2826.51424963 -1102.89157416 2831.81210779 -1098.15893292 2837.00248289 C-1096.27188631 2839.0848615 -1094.43506935 2841.19954478 -1092.60815167 2843.33451414 C-1088.33529927 2848.2448084 -1083.67908666 2852.76812243 -1079.04565167 2857.33451414 C-1076.15909554 2860.20654063 -1073.29458815 2863.09867347 -1070.44408917 2866.00638914 C-1063.70814031 2872.85010651 -1057.02096684 2879.47392675 -1049.46362042 2885.41263914 C-1047.18789179 2887.22145738 -1045.0571804 2889.11483813 -1042.92065167 2891.08451414 C-1015.45069374 2915.71949421 -982.53172171 2934.97503044 -949.8444798 2951.71317625 C-945.9427218 2953.72933402 -942.17454285 2955.839489 -938.47533917 2958.20951414 C-937.73009992 2958.67978025 -936.98486066 2959.15004637 -936.21703839 2959.63456297 C-934.82510333 2960.52396784 -933.44731744 2961.43615939 -932.08910871 2962.37626219 C-922.99370679 2968.16014146 -911.12302679 2963.71189075 -901.27221417 2961.65873289 C-899.90998304 2961.37911996 -898.54766002 2961.09995439 -897.18525434 2960.82119322 C-893.46532073 2960.05801834 -889.74718176 2959.28642283 -886.02945828 2958.51256132 C-883.63918342 2958.01546987 -881.24850116 2957.5203835 -878.85769391 2957.02585936 C-772.86140134 2935.09367115 -667.19156162 2911.56460788 -177.04565167 2789.33451414 C-176.37619016 2789.14553053 -175.70672864 2788.95654692 -175.01698041 2788.76183653 C-122.49728304 2773.93198646 -70.11261302 2758.69239445 -18.04565167 2742.33451414 C-17.1470744 2742.05239073 -16.24849713 2741.77026731 -15.32269025 2741.47959471 C77.6688844 2712.2629745 169.13600998 2679.68900973 313.14331317 2614.1401782 C316.60509247 2612.4989531 320.07055798 2610.86562466 323.53637958 2609.23295164 C332.93920523 2604.7885785 342.23836567 2600.21377968 351.40991473 2595.30912352 C357.86208823 2591.87046776 364.39435497 2588.60715211 370.94571185 2585.362041 C381.84957225 2579.95825771 392.61214218 2574.35184112 403.26294208 2568.46342039 C409.20791734 2565.17895617 415.20410934 2561.99223338 421.19995379 2558.80204344 C432.63007734 2552.71529531 443.93375502 2546.44128197 455.14136004 2539.95365477 C458.24918575 2538.16480734 461.36831791 2536.39681742 464.48950458 2534.63138914 C478.4589258 2526.71881848 492.26491979 2518.58369421 505.961169 2510.20717955 C511.50889763 2506.81446969 517.08050325 2503.47421267 522.70434833 2500.20951414 C533.61835582 2493.85337997 544.26956131 2487.06587546 554.95434833 2480.33451414 C556.58061228 2479.31231805 558.20691162 2478.29017828 559.83325458 2477.26810789 C563.72183854 2474.82168893 567.60269088 2472.36326835 571.48120379 2469.90092039 C574.04251086 2468.27867497 576.60975133 2466.66608002 579.17700458 2465.05326414 C593.30089387 2456.13690197 607.17378607 2446.86673085 621.01684833 2437.52201414 C621.93441913 2436.90262968 622.85198993 2436.28324522 623.7973659 2435.64509153 C638.54390763 2425.68418448 653.25192627 2415.66684114 667.82934833 2405.45951414 C669.08014178 2404.58371702 669.08014178 2404.58371702 670.35620379 2403.69022703 C678.20093632 2398.18378546 685.97253656 2392.57925732 693.72778583 2386.94779539 C695.98696337 2385.31088254 698.25108964 2383.68105323 700.51684833 2382.05326414 C708.35440138 2376.4194732 716.14455822 2370.73328003 723.84985614 2364.91971922 C728.18285949 2361.65289924 732.54405478 2358.42769664 736.92261004 2355.22220945 C747.08363414 2347.78027458 757.05350478 2340.1182699 766.95434833 2332.33451414 C768.20294707 2331.35522101 769.45164016 2330.37604817 770.70044208 2329.39701414 C773.00305595 2327.59073796 775.30370121 2325.78199871 777.60278583 2323.97123289 C779.85430653 2322.19824239 782.10971596 2320.43038659 784.36841083 2318.66654539 C792.07240182 2312.64453433 799.68422465 2306.51723555 807.26294208 2300.33842039 C810.25077891 2297.90335235 813.25281865 2295.48714001 816.26684833 2293.08451414 C824.32318849 2286.65286924 832.26523521 2280.09462523 840.11987567 2273.4189868 C843.51330849 2270.53943673 846.93675816 2267.70268942 850.39184833 2264.89701414 C856.40008297 2260.00335056 862.26893966 2254.95424623 868.13843036 2249.89603758 C869.95735481 2248.33192884 871.78114912 2246.77370338 873.60669208 2245.21732664 C878.84074804 2240.75219491 884.05271876 2236.27788085 889.14184833 2231.64701414 C892.55256349 2228.54483407 896.05168593 2225.6021314 899.64184833 2222.70951414 C903.42482244 2219.64913059 906.91676188 2216.49156099 910.29809833 2212.99857664 C912.63986166 2210.64576726 915.14892093 2208.50974744 917.66137958 2206.34232664 C920.42340493 2203.92378996 923.12841114 2201.44569138 925.82934833 2198.95951414 C929.45437158 2195.62293481 933.09282731 2192.30479165 936.76684833 2189.02201414 C942.89188969 2183.52118081 948.89541269 2177.89171009 954.89966083 2172.25980711 C956.99832612 2170.29330586 959.10116118 2168.33133377 961.20434833 2166.36967039 C968.6483307 2159.41160527 976.01356607 2152.4004275 983.13818622 2145.11381102 C985.86120148 2142.34633664 988.63770719 2139.71598945 991.59057879 2137.19388914 C996.26452772 2133.12199621 1000.64452414 2128.78836657 1005.02075458 2124.40092039 C1005.85847903 2123.56415266 1006.69620349 2122.72738493 1007.55931354 2121.8652606 C1009.31941768 2120.10583311 1011.0782751 2118.34515761 1012.83594012 2116.58329344 C1015.50905804 2113.90482003 1018.18747084 2111.23172541 1020.8664577 2108.55912352 C1022.58487736 2106.84004299 1024.30298675 2105.12065225 1026.02075458 2103.40092039 C1026.81260653 2102.61109266 1027.60445849 2101.82126493 1028.42030597 2101.00750303 C1032.59308068 2096.8172943 1036.59146669 2092.54082955 1040.45079303 2088.06045103 C1042.25485875 2085.98955708 1044.1508876 2084.03944341 1046.11059833 2082.11576414 C1046.82344989 2081.41064695 1047.53630145 2080.70552977 1048.27075458 2079.97904539 C1049.72648374 2078.54935789 1051.18221291 2077.11967039 1052.63794208 2075.68998289 C1056.73239437 2071.63995504 1060.64563502 2067.51302735 1064.38012958 2063.12748289 C1066.00202023 2061.28021786 1067.70095038 2059.556947 1069.45434833 2057.83451414 C1071.81793805 2055.51014327 1074.0432079 2053.12937628 1076.20434833 2050.61576414 C1080.45346739 2045.72815311 1084.89577865 2041.03551965 1089.34887958 2036.33451414 C1093.10702304 2032.35072645 1096.76569039 2028.30097514 1100.35571551 2024.16508055 C1102.47033197 2021.74367032 1104.64799603 2019.38330963 1106.82934833 2017.02201414 C1110.13771746 2013.39927509 1113.3144719 2009.71758523 1116.39184833 2005.89701414 C1119.61379908 2001.90224981 1122.96112815 1998.08919747 1126.45434833 1994.33451414 C1130.66460607 1989.8046276 1134.63072863 1985.13159022 1138.50903583 1980.31498289 C1141.42438935 1976.76160472 1144.43255881 1973.29736151 1147.45434833 1969.83451414 C1152.74461109 1963.76420831 1157.8917696 1957.59662179 1162.95434833 1951.33451414 C1164.37002463 1949.60453657 1165.78671912 1947.87539178 1167.20434833 1946.14701414 C1167.94684833 1945.23822508 1168.68934833 1944.32943602 1169.45434833 1943.39310789 C1170.77062561 1941.7827249 1172.08729814 1940.17266026 1173.40747333 1938.56547117 C1180.14077544 1930.36776087 1186.72891654 1922.08462276 1193.1398952 1913.63212156 C1196.75813823 1908.8703256 1200.45071449 1904.17767008 1204.20434833 1899.52201414 C1209.26734557 1893.23137661 1214.16067138 1886.83325176 1218.95434833 1880.33451414 C1220.02460389 1878.88915948 1221.09492097 1877.44385037 1222.16528583 1875.99857664 C1229.62707428 1865.90911818 1237.00615975 1855.76229851 1244.33667254 1845.57718992 C1245.97644206 1843.30388434 1247.62266142 1841.03538486 1249.27075458 1838.76810789 C1250.10207904 1837.62257444 1250.10207904 1837.62257444 1250.95019794 1836.45389891 C1251.97424174 1835.04313393 1252.99960178 1833.63332249 1254.02685809 1832.224895 C1263.87520369 1818.63853909 1273.17382605 1804.64475912 1282.57007098 1790.74467039 C1283.82459452 1788.89035522 1285.08077602 1787.03716064 1286.33862567 1785.18510008 C1294.14566706 1773.6887494 1301.66607466 1762.08525307 1308.83349872 1750.18003416 C1311.28949243 1746.13615037 1313.88186842 1742.17972189 1316.45434833 1738.20951414 C1329.4913159 1717.88805305 1341.64247168 1696.9541575 1353.49438739 1675.92338133 C1355.05633173 1673.15367267 1356.62660452 1670.38876501 1358.19653583 1667.62357664 C1381.73710506 1626.02735704 1403.76319827 1583.39227792 1422.95624042 1539.60935545 C1424.03531586 1537.1499767 1425.11896689 1534.69264178 1426.20288348 1532.23539305 C1440.63896563 1499.46624457 1453.88142072 1466.3931254 1465.86987567 1432.65287352 C1466.13011523 1431.92241819 1466.3903548 1431.19196287 1466.65848041 1430.43937254 C1467.14233795 1429.0796112 1467.6240012 1427.71906613 1468.10299945 1426.35758543 C1469.21423989 1423.23441875 1470.44077375 1420.28077688 1471.95434833 1417.33451414 C1466.19014673 1448.4260037 1459.98412247 1479.3288311 1452.50592303 1510.0552783 C1451.9908328 1512.18375173 1451.48373076 1514.31388382 1450.98120379 1516.44535398 C1433.26332462 1591.52904575 1408.04354998 1664.95426213 1378.95434833 1736.33451414 C1378.66084491 1737.05518064 1378.36734149 1737.77584715 1378.06494403 1738.51835203 C1352.4045957 1801.42688379 1323.23119396 1863.26367778 1290.38110614 1922.73832273 C1288.92110165 1925.39501125 1287.47843075 1928.06046627 1286.04028583 1930.72904539 C1279.77972732 1942.33092462 1273.27142 1953.76247996 1266.59106708 1965.12748289 C1263.47307581 1970.43421809 1260.40233424 1975.76684291 1257.34155536 1981.10673094 C1246.49595372 2000.01567962 1235.15683955 2018.59838154 1223.44653583 2036.98295164 C1221.98121177 2039.29217961 1220.52884223 2041.60907389 1219.07934833 2043.92826414 C1210.911757 2056.94458578 1202.41535399 2069.73717648 1193.89184833 2082.52201414 C1193.30137713 2083.40817411 1192.71090594 2084.29433409 1192.10254169 2085.20734739 C1176.88339229 2108.03475167 1161.32941274 2130.59699411 1145.22778583 2152.81107664 C1143.0774345 2155.77817861 1140.93704517 2158.75201918 1138.80591083 2161.73295164 C1130.97627901 2172.6672912 1122.87697661 2183.37781648 1114.69751239 2194.05228758 C1112.47225386 2196.96569328 1110.2727547 2199.89705472 1108.07934833 2202.83451414 C1094.71938053 2220.69841047 1080.81827642 2238.14670423 1066.73657489 2255.44462156 C1063.74590202 2259.12040355 1060.77337454 2262.80866421 1057.82934833 2266.52201414 C1054.3351247 2270.90634526 1050.72124387 2275.18144436 1047.08838153 2279.45072508 C1044.19085373 2282.85958132 1041.3367171 2286.29826275 1038.51684833 2289.77201414 C1034.56029307 2294.6345427 1030.49247995 2299.39220875 1026.39819598 2304.13846922 C1023.33430216 2307.69838024 1020.33852113 2311.30121194 1017.39184833 2314.95951414 C1013.29133599 2320.01259558 1008.93850076 2324.78760762 1004.51684833 2329.55717039 C1001.85568488 2332.44144967 999.26735825 2335.37788548 996.69653583 2338.34232664 C993.8797157 2341.56335413 991.00124687 2344.72869051 988.13403583 2347.90482664 C986.26289739 2349.99057594 984.41510001 2352.09269042 982.57934833 2354.20951414 C978.27507858 2359.14851491 973.82653595 2363.95525285 969.38940692 2368.77445555 C967.54721636 2370.77710912 965.70980397 2372.7841094 963.87256122 2374.79130125 C961.5686254 2377.30766551 959.26166223 2379.82124754 956.95434833 2382.33451414 C956.26502215 2383.08571531 956.26502215 2383.08571531 955.5617702 2383.85209227 C952.03738176 2387.69019539 948.49979785 2391.5158619 944.95434833 2395.33451414 C944.36025165 2395.9751782 943.76615497 2396.61584227 943.15405536 2397.27592039 C934.67236261 2406.40632959 926.042688 2415.35588353 917.15698504 2424.09501219 C916.44945086 2424.79408689 915.74191669 2425.4931616 915.01294208 2426.21342039 C914.39733417 2426.81742674 913.78172626 2427.42143309 913.14746356 2428.04374266 C911.24668321 2430.02916201 909.44675995 2432.05652505 907.64966083 2434.13480711 C904.17274152 2438.13306333 900.52249195 2441.91149433 896.77075458 2445.65092039 C896.1115552 2446.31107649 895.45235583 2446.97123259 894.77318072 2447.65139341 C893.39037998 2449.0348692 892.00633757 2450.41710497 890.62109637 2451.79813719 C888.5220449 2453.89183083 886.42838893 2455.99081288 884.3352077 2458.09037352 C882.98071047 2459.44420985 881.62590301 2460.79773589 880.27075458 2462.15092039 C879.65591708 2462.76778212 879.04107959 2463.38464384 878.40761065 2464.02019835 C874.64976123 2467.7582211 870.76429309 2471.28943348 866.75523639 2474.75600767 C864.58591039 2476.65745574 862.53855909 2478.65233476 860.51684833 2480.70951414 C859.76661395 2481.46748289 859.01637958 2482.22545164 858.24341083 2483.00638914 C857.4880202 2483.77467039 856.73262958 2484.54295164 855.95434833 2485.33451414 C851.01737315 2490.35573804 846.04215258 2495.2203789 840.70044208 2499.81107664 C838.51190644 2501.72053727 836.4762303 2503.75042041 834.45434833 2505.83451414 C831.14795755 2509.24264002 827.66057095 2512.35639251 824.0773952 2515.46537352 C820.62471002 2518.50513407 817.29363874 2521.67131912 813.95434833 2524.83451414 C809.32132081 2529.22322185 804.63570643 2533.52118918 799.81616473 2537.70463133 C797.20793559 2539.98794339 794.67842073 2542.34677677 792.14184833 2544.70951414 C788.36693706 2548.20218905 784.52876548 2551.54961421 780.51684833 2554.77201414 C776.33197033 2558.13798076 772.37124369 2561.66631055 768.45434833 2565.33451414 C763.64890916 2569.83412689 758.70273589 2574.06554873 753.56762958 2578.18998289 C750.95587209 2580.3332637 748.45069531 2582.55831744 745.95434833 2584.83451414 C741.70783147 2588.69984759 737.32421723 2592.3484966 732.86059833 2595.95951414 C729.75041928 2598.50116583 726.69539245 2601.10052268 723.64184833 2603.70951414 C718.68112044 2607.93564586 713.61381644 2611.99685779 708.46899676 2615.99589109 C703.70500772 2619.71161922 699.04199613 2623.54014822 694.39184833 2627.39701414 C687.94289324 2632.73727458 681.39996316 2637.90461068 674.73413348 2642.97269773 C671.20518876 2645.67289714 667.70804001 2648.41418674 664.20434833 2651.14701414 C645.13093439 2666.00046797 625.8743585 2680.58313917 606.24096942 2694.68900633 C603.9612732 2696.32953083 601.68564334 2697.97553104 599.41137958 2699.62357664 C592.07611633 2704.93823921 584.72575235 2710.23017652 577.32934833 2715.45951414 C576.72211932 2715.88949705 576.11489032 2716.31947996 575.48926044 2716.76249266 C561.90620593 2726.33760562 548.13204471 2735.64359267 534.36450458 2744.9502368 C532.5101894 2746.20476033 530.65699482 2747.46094184 528.80493426 2748.71879148 C517.99070487 2756.06261205 507.1128497 2763.21432953 495.90063739 2769.93754148 C491.89477366 2772.34685073 487.98250538 2774.88805895 484.07934833 2777.45951414 C464.78867816 2790.05464117 444.84365069 2801.71757151 424.95434833 2813.33451414 C423.93663348 2813.92973875 422.91891864 2814.52496336 421.87036395 2815.13822508 C407.31799396 2823.6352168 392.63913531 2831.84488451 377.78784442 2839.80668211 C375.09132112 2841.26065788 372.40556073 2842.73227994 369.72387958 2844.21342039 C332.59300729 2864.71173483 294.53192165 2883.9874317 255.88684344 2901.46006346 C253.81623647 2902.39700952 251.74705541 2903.33705962 249.67798114 2904.27738523 C165.42115406 2942.53412266 78.76304591 2974.25721359 -214.51914716 3067.50286436 C-300.62335211 3093.79263 -386.59779307 3120.48587773 -582.04565167 3185.33451414 C-582.91188153 3185.63256956 -583.77811139 3185.93062498 -584.67059064 3186.23771238 C-618.54747634 3197.8953347 -652.04093813 3210.38770758 -685.04565167 3224.33451414 C-687.04933362 3225.17619416 -689.0532293 3226.01736559 -691.05737042 3226.85795164 C-695.38974941 3228.67654777 -699.71892068 3230.50252344 -704.04565167 3232.33451414 C-704.04565167 3232.66451414 -704.04565167 3232.99451414 -704.04565167 3233.33451414 C-694.44798207 3232.78977124 -684.93311005 3231.94912051 -675.39066625 3230.77508497 C-673.17696541 3230.50297369 -670.96267678 3230.23615795 -668.74818158 3229.97059202 C-665.54048725 3229.58584342 -662.33296129 3229.19973699 -659.12554669 3228.81266356 C-619.48825009 3224.03885645 -579.80928534 3219.89923218 -540.04565167 3216.33451414 C-539.34943959 3216.27190145 -538.65322751 3216.20928877 -537.93591809 3216.14477873 C-500.45228213 3212.77575271 -463.01887336 3210.32792358 -425.38946271 3209.41593504 C-422.0851397 3209.33547566 -418.78097877 3209.24992773 -415.47680402 3209.1636157 C-347.70260103 3207.43365871 -279.82094823 3207.91461858 -212.04565167 3209.33451414 C-211.12451077 3209.35374434 -210.20336987 3209.37297453 -209.25431561 3209.39278746 C-152.95422542 3210.5726588 -96.66475102 3212.11528527 -40.37768292 3213.79545164 C-39.28941473 3213.82792911 -38.20114653 3213.86040658 -37.0799005 3213.89386821 C-14.024458 3214.58224174 9.03076488 3215.2776463 32.08565211 3215.98437548 C83.848904 3217.57104677 135.61192259 3219.05467168 187.38727224 3220.18952799 C192.12614184 3220.29352331 196.86491085 3220.40121374 201.60364032 3220.51145506 C244.96862792 3221.51198253 288.33504762 3221.52240003 331.70922935 3221.51962626 C338.62029835 3221.5199267 345.531328 3221.52807934 352.44238544 3221.54032469 C393.47655147 3221.61133107 434.48721267 3221.50361247 475.50903583 3220.40873289 C476.29661769 3220.38778744 477.08419955 3220.36684198 477.89564753 3220.34526181 C565.32913364 3218.00188117 652.6643466 3212.90424085 1090.95434833 3135.33451414 C1091.7774953 3135.08570494 1092.60064227 3134.83689573 1093.44873309 3134.58054686 C1144.34770769 3119.16219796 1194.35473462 3100.96408609 1242.95434833 3079.33451414 C1243.59448871 3079.05043699 1244.23462909 3078.76635984 1244.89416766 3078.4736743 C1275.99781045 3064.6631983 1306.80761871 3050.04028055 1336.23071551 3032.90140867 C1339.15472707 3031.21923709 1342.10117148 3029.58317141 1345.05591083 3027.95560789 C1358.60613949 3020.48898417 1371.82284176 3012.62403823 1384.86596942 3004.30375242 C1388.11561119 3002.23168835 1391.37258125 3000.17146605 1394.63012958 2998.11185789 C1396.842789 2996.70757128 1399.05503964 2995.30264032 1401.26684833 2993.89701414 C1402.27425067 2993.25908934 1403.28165301 2992.62116453 1404.3195827 2991.96390867 C1410.16766017 2988.22763696 1415.83273467 2984.31448583 1421.4199245 2980.19852781 C1424.89192499 2977.64494687 1428.4229247 2975.17979062 1431.95434833 2972.70951414 C1445.70443264 2963.02949215 1459.20550603 2953.11659204 1472.18481708 2942.42045164 C1475.76647397 2939.47171642 1479.41450804 2936.6161764 1483.07934833 2933.77201414 C1492.98650428 2926.04862555 1502.42587444 2917.78461179 1511.72778583 2909.34623289 C1513.78539224 2907.48716745 1515.86281596 2905.65523056 1517.95434833 2903.83451414 C1532.64357613 2891.00689144 1546.77350744 2877.6052574 1560.57934833 2863.83451414 C1561.50328387 2862.91517088 1562.42721942 2861.99582762 1563.37915301 2861.04862547 C1567.90189062 2856.51557516 1572.3008814 2851.93962929 1576.44604754 2847.05717039 C1578.04308384 2845.23316779 1579.72365552 2843.53152011 1581.45434833 2841.83451414 C1584.46848415 2838.86716091 1587.25352165 2835.76106122 1590.01294208 2832.55717039 C1592.24238894 2830.00474531 1594.53436214 2827.515639 1596.82934833 2825.02201414 C1600.91995392 2820.53653862 1604.80252676 2815.9287087 1608.61450458 2811.20560789 C1610.69172811 2808.65676098 1612.80425923 2806.14705089 1614.94018817 2803.64774656 C1620.62594923 2796.99370739 1626.08140396 2790.18713502 1631.44604754 2783.27250242 C1633.05710412 2781.20248508 1634.67886227 2779.14115994 1636.30200458 2777.08060789 C1644.46550711 2766.69193852 1652.31102907 2756.11065783 1659.95434833 2745.33451414 C1660.36423999 2744.75973326 1660.77413165 2744.18495237 1661.19644427 2743.59275389 C1669.30167652 2732.22549504 1677.15984369 2720.70841695 1684.89184833 2709.08451414 C1685.4608385 2708.23011747 1686.02982867 2707.37572081 1686.61606097 2706.49543333 C1694.98233044 2693.92349773 1703.21462999 2681.30456809 1710.95434833 2668.33451414 C1711.4664284 2667.48324949 1711.97850848 2666.63198484 1712.50610614 2665.7549243 C1721.3016002 2651.12329229 1729.71240078 2636.28400411 1737.95434833 2621.33451414 C1738.78289325 2619.83622068 1738.78289325 2619.83622068 1739.62817645 2618.30765867 C1756.29115473 2588.08510804 1771.41961327 2557.16556965 1785.14038348 2525.5049243 C1786.83996156 2521.5872279 1788.57189215 2517.68452918 1790.30981708 2513.78373289 C1804.55866332 2481.64093663 1816.66284366 2448.61845244 1827.95434833 2415.33451414 C1828.23022784 2414.52361326 1828.50610736 2413.71271238 1828.79034686 2412.87723875 C1861.63869202 2316.21121485 1883.30101136 2216.14978217 1912.79291034 1942.49894285 C1912.9478268 1939.46234588 1913.11058146 1936.42626538 1913.27514911 1933.3901782 C1917.17763233 1860.00257648 1916.56543335 1785.72412526 1912.95434833 1712.33451414 C1912.88803339 1710.96078192 1912.82185496 1709.58704311 1912.75580096 1708.21329832 C1910.6805515 1665.18753065 1907.84444 1622.23742029 1903.95434833 1579.33451414 C1903.86362803 1578.33316938 1903.86362803 1578.33316938 1903.77107501 1577.31159544 C1896.62935153 1498.61910846 1886.73725792 1420.17310267 1693.95434833 594.33451414 C1693.66596087 593.40123289 1693.37757342 592.46795164 1693.08044696 591.50638914 C1675.59430494 534.94157513 1657.47129094 478.5697542 1638.95434833 422.33451414 C1638.29434833 422.33451414 1637.63434833 422.33451414 1636.95434833 422.33451414 Z M-1192.04565167 3122.33451414 C-1194.52527464 3124.89912418 -1196.81278914 3127.5533159 -1199.04565167 3130.33451414 C-1200.19807355 3131.74797117 -1200.19807355 3131.74797117 -1201.37377667 3133.18998289 C-1228.49648917 3167.04072849 -1240.72533664 3209.77204055 -1236.58471417 3252.89701414 C-1232.35813447 3288.79619111 -1216.82813592 3321.22007227 -1192.04565167 3347.33451414 C-1191.59995831 3347.80743895 -1191.15426496 3348.28036375 -1190.69506574 3348.76761961 C-1166.38023753 3374.40916631 -1133.8959688 3390.76006756 -1099.04565167 3396.33451414 C-1097.3363548 3396.60908445 -1097.3363548 3396.60908445 -1095.59252667 3396.88920164 C-1055.93981874 3401.60196513 -1013.28107959 3392.47736601 -981.04565167 3368.33451414 C-980.52019757 3367.95279051 -979.99474347 3367.57106688 -979.45336652 3367.17777586 C-946.91751868 3343.46970392 -926.51482264 3310.1788505 -917.04565167 3271.33451414 C-916.86631085 3270.63552 -916.68697003 3269.93652586 -916.50219464 3269.21635008 C-906.83818548 3230.23402117 -916.18193951 3185.46291865 -936.04565167 3151.33451414 C-959.28576588 3113.1567446 -994.91610711 3087.48571032 -1038.10815167 3076.58451414 C-1094.213056 3063.11723776 -1151.6683142 3082.39880379 -1192.04565167 3122.33451414 Z " fill="#6CB33E" transform="translate(1838.0456516742706,-0.33451414108276367)"/>
</svg>
